{
    "asset" : {
        "generator" : "Khronos glTF Blender I/O v3.3.32",
        "version" : "2.0"
    },
    "extensionsUsed" : [
        "KHR_materials_specular",
        "KHR_materials_ior"
    ],
    "scene" : 0,
    "scenes" : [
        {
            "name" : "Scene",
            "nodes" : [
                28
            ]
        }
    ],
    "nodes" : [
        {
            "name" : "Neutre"
        },
        {
            "name" : "LeftHandThumb4",
            "rotation" : [
                -1.1050723003336316e-08,
                -3.725290298461914e-08,
                -1.4045202334500573e-08,
                1
            ],
            "scale" : [
                1,
                1,
                1.0000001192092896
            ],
            "translation" : [
                0.0001621246337890625,
                -0.00019647179578896612,
                3.056605339050293
            ]
        },
        {
            "children" : [
                1
            ],
            "name" : "LeftHandThumb3",
            "rotation" : [
                0.004998742137104273,
                0.1332319676876068,
                -0.0046853069216012955,
                0.9910612106323242
            ],
            "translation" : [
                0.00019550323486328125,
                -0.00018414000805933028,
                3.8113813400268555
            ]
        },
        {
            "children" : [
                2
            ],
            "name" : "LeftHandThumb2",
            "rotation" : [
                -0.00865300465375185,
                0.10888580232858658,
                0.013352359645068645,
                0.9939269423484802
            ],
            "scale" : [
                1,
                1,
                1.0000001192092896
            ],
            "translation" : [
                -0.0001964569091796875,
                0.0002279677428305149,
                4.126267433166504
            ]
        },
        {
            "children" : [
                3
            ],
            "name" : "LeftHandThumb1",
            "rotation" : [
                0.41524824500083923,
                -0.0517108291387558,
                0.4524184465408325,
                0.7875358462333679
            ],
            "scale" : [
                1.0000001192092896,
                0.9999999403953552,
                1
            ],
            "translation" : [
                1.9468711614608765,
                -4.508915424346924,
                3.4433319568634033
            ]
        },
        {
            "name" : "LeftHandIndex4",
            "rotation" : [
                -7.264316082000732e-08,
                3.853177332757696e-08,
                -3.2812479844324116e-08,
                1
            ],
            "translation" : [
                0.00024094790569506586,
                3.528594970703125e-05,
                2.917562484741211
            ]
        },
        {
            "children" : [
                5
            ],
            "name" : "LeftHandIndex3",
            "rotation" : [
                -0.025868598371744156,
                0.12247922271490097,
                -0.050488609820604324,
                0.9908484220504761
            ],
            "scale" : [
                0.9999999403953552,
                1.0000001192092896,
                1
            ],
            "translation" : [
                -0.00048354652244597673,
                -0.0001964569091796875,
                3.070345878601074
            ]
        },
        {
            "children" : [
                6
            ],
            "name" : "LeftHandIndex2",
            "rotation" : [
                -0.03134726360440254,
                0.11632682383060455,
                -0.05600821599364281,
                0.9911350011825562
            ],
            "scale" : [
                1,
                1.0000001192092896,
                1
            ],
            "translation" : [
                0.0005118302069604397,
                0.00017595291137695312,
                3.680924415588379
            ]
        },
        {
            "children" : [
                7
            ],
            "name" : "LeftHandIndex1",
            "rotation" : [
                0.047469306737184525,
                0.11578457057476044,
                -0.053445763885974884,
                0.9906989336013794
            ],
            "scale" : [
                1.0000001192092896,
                1,
                1
            ],
            "translation" : [
                0.8010936975479126,
                -4.058842658996582,
                12.202653884887695
            ]
        },
        {
            "name" : "LeftHandMiddle4",
            "rotation" : [
                2.6635825634002686e-07,
                3.600295883643412e-08,
                -5.9033318677848e-08,
                1
            ],
            "scale" : [
                0.9999998807907104,
                0.9999998807907104,
                1
            ],
            "translation" : [
                -0.00022469775285571814,
                -0.00015211105346679688,
                2.7876462936401367
            ]
        },
        {
            "children" : [
                9
            ],
            "name" : "LeftHandMiddle3",
            "rotation" : [
                -0.05310964211821556,
                0.09496697783470154,
                -0.03152019903063774,
                0.9935629367828369
            ],
            "scale" : [
                1,
                0.9999999403953552,
                1
            ],
            "translation" : [
                0.00010760752047644928,
                1.52587890625e-05,
                3.50424861907959
            ]
        },
        {
            "children" : [
                10
            ],
            "name" : "LeftHandMiddle2",
            "rotation" : [
                -0.03488609939813614,
                0.0845702663064003,
                -0.036646969616413116,
                0.9951320886611938
            ],
            "scale" : [
                1.0000001192092896,
                1.0000001192092896,
                0.9999998807907104
            ],
            "translation" : [
                0.00031086328090168536,
                0.0001614093780517578,
                3.923900604248047
            ]
        },
        {
            "children" : [
                11
            ],
            "name" : "LeftHandMiddle1",
            "rotation" : [
                0.028773711994290352,
                0.22483430802822113,
                -0.09886213392019272,
                0.9689416289329529
            ],
            "translation" : [
                0.3742336332798004,
                -1.0605908632278442,
                12.462946891784668
            ]
        },
        {
            "name" : "LeftHandRing4",
            "rotation" : [
                -1.1641532182693481e-08,
                -1.0968103225650339e-07,
                4.810971176993917e-09,
                1
            ],
            "scale" : [
                0.9999999403953552,
                1,
                1
            ],
            "translation" : [
                -0.00017313103307969868,
                -8.392333984375e-05,
                3.1824002265930176
            ]
        },
        {
            "children" : [
                13
            ],
            "name" : "LeftHandRing3",
            "rotation" : [
                -0.04593707621097565,
                0.10540808737277985,
                -0.030759287998080254,
                0.9928911328315735
            ],
            "scale" : [
                0.9999999403953552,
                1,
                0.9999998807907104
            ],
            "translation" : [
                0.00015717717178631574,
                1.9788742065429688e-05,
                3.3002662658691406
            ]
        },
        {
            "children" : [
                14
            ],
            "name" : "LeftHandRing2",
            "rotation" : [
                -0.0366983488202095,
                0.13125596940517426,
                -0.05049159377813339,
                0.9893814921379089
            ],
            "scale" : [
                0.9999998807907104,
                0.9999999403953552,
                0.9999999403953552
            ],
            "translation" : [
                -0.00014472902694251388,
                -9.059906005859375e-06,
                3.9875059127807617
            ]
        },
        {
            "children" : [
                15
            ],
            "name" : "LeftHandRing1",
            "rotation" : [
                0.00953200738877058,
                0.23761104047298431,
                -0.09890656173229218,
                0.9662647843360901
            ],
            "scale" : [
                1.0000001192092896,
                1,
                1
            ],
            "translation" : [
                0.895343005657196,
                2.0218729972839355,
                11.833930015563965
            ]
        },
        {
            "name" : "LeftHandPinky4",
            "rotation" : [
                -9.804353595654902e-08,
                -3.697558526027933e-08,
                2.6311259837541456e-09,
                1
            ],
            "scale" : [
                0.9999999403953552,
                0.9999999403953552,
                1
            ],
            "translation" : [
                -2.7931755539611913e-05,
                -4.780292510986328e-05,
                2.269181728363037
            ]
        },
        {
            "children" : [
                17
            ],
            "name" : "LeftHandPinky3",
            "rotation" : [
                -0.03398626297712326,
                0.12084261327981949,
                -0.027346553280949593,
                0.991712749004364
            ],
            "scale" : [
                1.0000001192092896,
                0.9999998807907104,
                0.9999999403953552
            ],
            "translation" : [
                -5.0763526814989746e-05,
                5.1021575927734375e-05,
                2.304415225982666
            ]
        },
        {
            "children" : [
                18
            ],
            "name" : "LeftHandPinky2",
            "rotation" : [
                -0.07580579817295074,
                0.2245052009820938,
                -0.07813669741153717,
                0.968372642993927
            ],
            "scale" : [
                0.9999999403953552,
                0.9999998211860657,
                1
            ],
            "translation" : [
                0.00015184206131380051,
                3.910064697265625e-05,
                2.6216516494750977
            ]
        },
        {
            "children" : [
                19
            ],
            "name" : "LeftHandPinky1",
            "rotation" : [
                0.013489950448274612,
                0.29471397399902344,
                -0.12419208884239197,
                0.9473849534988403
            ],
            "scale" : [
                1,
                1.000000238418579,
                1
            ],
            "translation" : [
                1.5742788314819336,
                4.913961410522461,
                10.982229232788086
            ]
        },
        {
            "children" : [
                4,
                8,
                12,
                16,
                20
            ],
            "name" : "LeftHand",
            "rotation" : [
                -0.008817332796752453,
                0.04356854408979416,
                0.134603351354599,
                0.9899020195007324
            ],
            "translation" : [
                -0.1406264305114746,
                -0.2404649257659912,
                16.450111389160156
            ]
        },
        {
            "children" : [
                21
            ],
            "name" : "LeftForearmRoll",
            "rotation" : [
                0.006733120419085026,
                -0.0012565827928483486,
                0.04825221002101898,
                0.9988117218017578
            ],
            "scale" : [
                0.9999998211860657,
                0.9999998807907104,
                0.9999998807907104
            ],
            "translation" : [
                -0.056002140045166016,
                -0.39100027084350586,
                14.47700023651123
            ]
        },
        {
            "children" : [
                22
            ],
            "name" : "LeftForeArm_",
            "rotation" : [
                0.129617378115654,
                -0.06831520795822144,
                -0.12912006676197052,
                0.9807448387145996
            ],
            "scale" : [
                1.0000001192092896,
                1,
                1
            ],
            "translation" : [
                -0.600001871585846,
                -0.799998939037323,
                27.799997329711914
            ]
        },
        {
            "children" : [
                23
            ],
            "name" : "LeftArm",
            "rotation" : [
                0.2025090903043747,
                0.26724952459335327,
                -0.022621089592576027,
                0.9418365359306335
            ],
            "scale" : [
                1,
                1,
                0.9999999403953552
            ],
            "translation" : [
                2.000002861022949,
                -2.1457672119140625e-06,
                15.999995231628418
            ]
        },
        {
            "children" : [
                24
            ],
            "name" : "LeftShoulder",
            "rotation" : [
                0.7584039568901062,
                -0.09266278892755508,
                0.6356202960014343,
                0.11056257039308548
            ],
            "scale" : [
                1,
                1,
                1.0000001192092896
            ],
            "translation" : [
                3.6418895721435547,
                3.105006456375122,
                -4.01098108291626
            ]
        },
        {
            "children" : [
                0
            ],
            "mesh" : 0,
            "name" : "FpsArms.2.2",
            "skin" : 0
        },
        {
            "children" : [
                26,
                25
            ],
            "name" : "Reference",
            "translation" : [
                0.002458722796291113,
                -0.10412141680717468,
                -0.025768768042325974
            ]
        },
        {
            "children" : [
                27
            ],
            "name" : "FpsArms",
            "rotation" : [
                0.7071068286895752,
                0,
                0,
                0.7071067094802856
            ],
            "scale" : [
                0.009999999776482582,
                0.009999999776482582,
                0.009999999776482582
            ]
        }
    ],
    "materials" : [
        {
            "doubleSided" : true,
            "extensions" : {
                "KHR_materials_specular" : {
                    "specularColorFactor" : [
                        2.371357614441398,
                        2.371357614441398,
                        2.371357614441398
                    ]
                },
                "KHR_materials_ior" : {
                    "ior" : 1.4500000476837158
                }
            },
            "name" : "ArmsTex.005",
            "pbrMetallicRoughness" : {
                "baseColorFactor" : [
                    0.800000011920929,
                    0.800000011920929,
                    0.800000011920929,
                    1
                ],
                "metallicFactor" : 0,
                "roughnessFactor" : 0.2928932309150696
            }
        }
    ],
    "meshes" : [
        {
            "name" : "FpsArms.2.001",
            "primitives" : [
                {
                    "attributes" : {
                        "POSITION" : 0,
                        "NORMAL" : 1,
                        "TEXCOORD_0" : 2,
                        "JOINTS_0" : 3,
                        "WEIGHTS_0" : 4
                    },
                    "indices" : 5,
                    "material" : 0
                }
            ]
        }
    ],
    "skins" : [
        {
            "inverseBindMatrices" : 6,
            "joints" : [
                25,
                24,
                23,
                22,
                21,
                4,
                3,
                2,
                1,
                8,
                7,
                6,
                5,
                12,
                11,
                10,
                9,
                16,
                15,
                14,
                13,
                20,
                19,
                18,
                17
            ],
            "name" : "Reference"
        }
    ],
    "accessors" : [
        {
            "bufferView" : 0,
            "componentType" : 5126,
            "count" : 665,
            "max" : [
                0.9046357274055481,
                0.1165664866566658,
                0.30256861448287964
            ],
            "min" : [
                0.18675276637077332,
                -0.1955115646123886,
                -0.0587431937456131
            ],
            "type" : "VEC3"
        },
        {
            "bufferView" : 1,
            "componentType" : 5126,
            "count" : 665,
            "type" : "VEC3"
        },
        {
            "bufferView" : 2,
            "componentType" : 5126,
            "count" : 665,
            "type" : "VEC2"
        },
        {
            "bufferView" : 3,
            "componentType" : 5121,
            "count" : 665,
            "type" : "VEC4"
        },
        {
            "bufferView" : 4,
            "componentType" : 5126,
            "count" : 665,
            "type" : "VEC4"
        },
        {
            "bufferView" : 5,
            "componentType" : 5123,
            "count" : 3363,
            "type" : "SCALAR"
        },
        {
            "bufferView" : 6,
            "componentType" : 5126,
            "count" : 25,
            "type" : "MAT4"
        }
    ],
    "bufferViews" : [
        {
            "buffer" : 0,
            "byteLength" : 7980,
            "byteOffset" : 0,
            "target" : 34962
        },
        {
            "buffer" : 0,
            "byteLength" : 7980,
            "byteOffset" : 7980,
            "target" : 34962
        },
        {
            "buffer" : 0,
            "byteLength" : 5320,
            "byteOffset" : 15960,
            "target" : 34962
        },
        {
            "buffer" : 0,
            "byteLength" : 2660,
            "byteOffset" : 21280,
            "target" : 34962
        },
        {
            "buffer" : 0,
            "byteLength" : 10640,
            "byteOffset" : 23940,
            "target" : 34962
        },
        {
            "buffer" : 0,
            "byteLength" : 6726,
            "byteOffset" : 34580,
            "target" : 34963
        },
        {
            "buffer" : 0,
            "byteLength" : 1600,
            "byteOffset" : 41308
        }
    ],
    "buffers" : [
        {
            "byteLength" : 42908,
            "uri" : "data:application/octet-stream;base64,"
        }
    ]
}
